<svg width="300" height="300" viewBox="0 0 300 300" fill="none" xmlns="http://www.w3.org/2000/svg">
<g clip-path="url(#clip0_7_87)">
<path d="M188.689 286.014H107.514L113.279 235.822L119.057 185.432H185.115L186.205 216.129L188.689 286.014Z" fill="#FEB4A9"/>
<path d="M186.205 216.129C170.918 230.104 151.354 238.699 131.051 238.699C125.008 238.735 119.002 237.762 113.279 235.822L119.057 185.432H185.115L186.205 216.129Z" fill="#F47D71"/>
<path d="M216.703 126.721C216.703 175.406 175.688 216.955 131.051 216.955C89.8828 216.955 67.623 175.383 67.623 126.721C67.623 78.0586 101.021 42.8086 142.166 42.8086C183.311 42.8086 216.703 78.0352 216.703 126.721Z" fill="#FEB4A9"/>
<path d="M120.908 131.766L107.514 153.727L125.391 158.795" stroke="#F47D71" stroke-width="7.75" stroke-linecap="round" stroke-linejoin="round"/>
<path d="M103.922 131.766C107.63 131.766 110.637 127.196 110.637 121.559C110.637 115.921 107.63 111.352 103.922 111.352C100.213 111.352 97.207 115.921 97.207 121.559C97.207 127.196 100.213 131.766 103.922 131.766Z" fill="#352120"/>
<path d="M161.057 131.766C164.765 131.766 167.771 127.196 167.771 121.559C167.771 115.921 164.765 111.352 161.057 111.352C157.348 111.352 154.342 115.921 154.342 121.559C154.342 127.196 157.348 131.766 161.057 131.766Z" fill="#352120"/>
<path d="M161.402 58.8691C161.402 58.8691 157.254 124.096 195.334 124.119C233.414 124.143 228.059 114.744 228.059 114.744C228.059 114.744 249.68 55.6816 220.518 28.8984C191.355 2.11524 161.268 11.3203 161.268 11.3203C161.268 11.3203 116.074 -15.7207 80.6602 13.7402C45.2461 43.2012 22.6523 77.7188 32.1562 102.715C41.6602 127.711 59.5371 122.35 59.5371 122.35C59.5371 122.35 43.7637 108.662 49.7168 94.6758C55.6699 80.6895 45.0645 113.127 67.623 119.379C90.1816 125.631 114.486 2.23243 161.402 58.8691Z" fill="#352120"/>
<path d="M84.4219 101.953C94.8984 97.0723 104.18 97.8516 112.113 104.93" stroke="#352120" stroke-width="6.64" stroke-linecap="round" stroke-linejoin="round"/>
<path d="M148.945 101.953C159.416 97.0723 168.703 97.8516 176.637 104.93" stroke="#352120" stroke-width="6.64" stroke-linecap="round" stroke-linejoin="round"/>
<path d="M113.795 176.707C113.795 176.707 132.744 179.484 155.086 169.172" stroke="#F44945" stroke-width="6.64" stroke-linecap="round" stroke-linejoin="round"/>
<path d="M235.77 128.678C235.77 142.635 224.795 155.168 212.994 155.168C201.193 155.168 193.031 142.635 193.031 128.678C193.031 114.721 202.6 104.619 214.4 104.619C226.201 104.619 235.77 114.721 235.77 128.678Z" fill="#FEB4A9"/>
<path d="M223.271 120.973C219.627 111.715 204.961 119.572 205.934 135.574" stroke="#F47D71" stroke-width="5.54" stroke-linecap="round" stroke-linejoin="round"/>
<path d="M207.223 126.439C207.223 126.439 217.184 127.57 216.855 135.674C216.527 143.777 209.033 142.969 209.033 142.969" stroke="#F47D71" stroke-width="5.54" stroke-linecap="round" stroke-linejoin="round"/>
<path d="M186.914 235.922C185.895 263.461 170.836 278.725 140.783 278.725C119.279 277.975 108.797 273.668 113.285 235.822L62.5195 250.096C51.6401 253.155 42.0589 259.687 35.236 268.696C28.4131 277.706 24.7225 288.699 24.7266 300H275.273C275.274 288.698 271.578 277.705 264.751 268.698C257.924 259.69 248.339 253.162 237.457 250.107L186.914 235.922Z" fill="#352120"/>
</g>
<defs>
<clipPath id="clip0_7_87">
<rect width="300" height="300" fill="white"/>
</clipPath>
</defs>
</svg>
